<?xml version="1.0" encoding="UTF-8"?><svg id="_レイヤー_2" xmlns="http://www.w3.org/2000/svg" viewBox="0 0 21.79 17.88"><defs><style>.cls-1{fill:#fff;}</style></defs><g id="_レイヤー_1-2"><path class="cls-1" d="m20.95,17.88H.84c-.46,0-.84-.38-.84-.84V.84c0-.46.38-.84.84-.84h20.11c.46,0,.84.38.84.84v16.2c0,.46-.38.84-.84.84Zm-19.28-1.68h18.44V1.68H1.68v14.53Z"/><path class="cls-1" d="m10.9,11.73c-.16,0-.32-.05-.46-.14L3.73,7.12c-.39-.26-.49-.78-.23-1.16.26-.38.78-.49,1.16-.23l6.24,4.16,6.24-4.16c.39-.26.9-.15,1.16.23.26.39.15.91-.23,1.16l-6.7,4.47c-.14.09-.3.14-.46.14Z"/></g></svg>