<?xml version="1.0" encoding="UTF-8"?><svg id="_レイヤー_2" xmlns="http://www.w3.org/2000/svg" viewBox="0 0 38 38"><defs><style>.cls-1{fill:#fff;}</style></defs><g id="_レイヤー_1-2"><path class="cls-1" d="m19,0C8.52,0,0,8.52,0,19s8.52,19,19,19,19-8.52,19-19S29.48,0,19,0Zm0,36c-9.37,0-17-7.63-17-17S9.63,2,19,2s17,7.63,17,17-7.63,17-17,17Zm8.2-21.98l-10.58,10.58-4.82-4.82c-.39-.39-1.02-.39-1.41,0-.39.39-.39,1.02,0,1.41l5.53,5.53c.2.2.45.29.71.29s.51-.1.71-.29l11.29-11.29c.39-.39.39-1.02,0-1.41-.39-.39-1.02-.39-1.41,0Z"/></g></svg>