<?xml version="1.0" encoding="utf-8"?>
<!-- Generator: Adobe Illustrator 27.6.1, SVG Export Plug-In . SVG Version: 6.00 Build 0)  -->
<svg version="1.1" id="レイヤー_1" xmlns="http://www.w3.org/2000/svg" xmlns:xlink="http://www.w3.org/1999/xlink" x="0px"
	 y="0px" viewBox="0 0 190.2 44.3" style="enable-background:new 0 0 190.2 44.3;" xml:space="preserve">
<style type="text/css">
	.st0{fill:#FFFFFF;}
</style>
<g>
	<path class="st0" d="M20.4,10.8V17c1.9,2.7,2.8,6.4,2.8,11.3c0,6.1-1.3,11.4-4,16l-5.9-3.4c1.8-3.1,3-6.4,3.5-10
		c-0.6,1-1.6,1.8-2.9,2.4c-1.3,0.6-2.5,1-3.7,1c-2.6,0-4.8-1-6.6-2.9c-1.8-1.9-2.7-4.2-2.7-6.9c0-3.6,1.2-6.5,3.7-8.7
		C7,13.8,10,13,13.7,13.2v-2.4H0V3.6h13.7V0.4h6.7v3.2h9.1v7.2H20.4z M13.7,19.9h-0.8c-1.5,0-2.8,0.4-3.7,1.2c-1,0.8-1.5,2-1.5,3.5
		c0,0.8,0.2,1.4,0.8,2.1c0.5,0.6,1.2,1,1.9,1c1,0,1.8-0.4,2.4-1.1c0.6-0.7,1-1.6,1-2.6V19.9z"/>
	<path class="st0" d="M70.2,43.6c-3.3-3.5-8.2-8.9-14.6-16c-2-2.4-3-4.6-3-6.7c0-2.5,1.3-5.1,3.9-7.7L69.7,0l5.1,5
		c-2.7,2.6-5.5,5.3-8.2,7.9c-4.6,4.6-6.8,7.2-6.8,8c0,0.5,5.2,6.5,15.6,17.8L70.2,43.6z M81.4,15.9L78,12.6L74.6,16l-3.5-3.3
		l3.4-3.5l3.5,3.3l3.3-3.5l3.5,3.3L81.4,15.9z"/>
	<path class="st0" d="M102.8,38.1l11.9-34l6.8,2.4l-8.5,24.4h16.8l-2.4-9l6.9-1.8l4.8,18H102.8z"/>
	<path class="st0" d="M167.3,18.8c0.8,4.9,2.4,8.8,4.9,11.7c2.5,2.9,6.1,5.1,10.9,6.5l-2,6.9c-7.8-2.3-13.5-6.5-17-12.5
		c-3.1-5.3-4.6-12.2-4.6-20.9c0-2.8,0.1-6,0.5-9.6l7.2,0.7c-0.3,3.1-0.4,6.1-0.4,8.9v1l18.1-3.2l1.2,7.1L167.3,18.8z M186.9,7.9
		l-3.4-3.3l-3.4,3.5l-3.4-3.3l3.3-3.5l3.5,3.3l3.4-3.4l3.4,3.3L186.9,7.9z"/>
</g>
</svg>
